<svg height="512" viewBox="0 0 64 64" width="512" xmlns="http://www.w3.org/2000/svg" class="fill-main"><path d="m50.707 19.293a3.834 3.834 0 0 0 -5.414 0l-6.293 6.293v-17.586a4 4 0 0 0 -6.225-3.323 4 4 0 0 0 -7.55 0 4 4 0 0 0 -6 2 4 4 0 0 0 -6.225 3.323v31a1 1 0 0 0 .4.8l3.6 2.7v3.5h-1a1 1 0 0 0 -1 1v12a1 1 0 0 0 1 1h20a1 1 0 0 0 1-1v-12a1 1 0 0 0 -1-1h-1v-3.5l3.6-2.7a1 1 0 0 0 .4-.8v-4.586l11.707-11.707a3.832 3.832 0 0 0 0-5.414zm-15.707 40.707h-18v-6h18zm0-8h-18v-2h18zm14.293-28.707-12 12a1 1 0 0 0 -.293.707v4.5l-3.6 2.7a1 1 0 0 0 -.4.8v4h-14v-4a1 1 0 0 0 -.4-.8l-3.6-2.7v-30.5a2 2 0 0 1 4 0v15h2v-17a2 2 0 0 1 4 0v15h2v-17a2 2 0 0 1 4 0v17h2v-15a2 2 0 0 1 4 0v19h-2a7.008 7.008 0 0 0 -7 7v2h2v-2a5.006 5.006 0 0 1 5-5h3v-.009a.991.991 0 0 0 .707-.284l8-8a1.872 1.872 0 0 1 2.586 0 1.831 1.831 0 0 1 0 2.586z"/><path d="m46 32h2v22h-2z"/><path d="m42 36h2v20h-2z"/><path d="m19 56h2v2h-2z"/><path d="m23 56h2v2h-2z"/></svg>